HIERARCHY
ROOT Hips
{
	OFFSET 47.614700 -2.726304 84.072098
	CHANNELS 6 Xposition Yposition Zposition Xrotation Yrotation Zrotation
	JOINT spine
	{
		OFFSET 0.000000 -0.359108 6.244797
		CHANNELS 3 Xrotation Yrotation Zrotation
		JOINT spine1
		{
			OFFSET 0.000000 -0.000001 9.069412
			CHANNELS 3 Xrotation Yrotation Zrotation
			JOINT spine2
			{
				OFFSET 0.000000 -0.000001 8.690140
				CHANNELS 3 Xrotation Yrotation Zrotation
				JOINT Neck
				{
					OFFSET 0.000000 -1.063724 22.311203
					CHANNELS 3 Xrotation Yrotation Zrotation
					JOINT Head
					{
						OFFSET 0.000000 -0.000001 6.740814
						CHANNELS 3 Xrotation Yrotation Zrotation
						End Site
						{
							OFFSET 0.000000 5.380967 16.316498
						}
					}
				}
				JOINT RightShoulder
				{
					OFFSET -3.659161 0.509513 9.384682
					CHANNELS 3 Xrotation Yrotation Zrotation
					JOINT RightArm
					{
						OFFSET 0.000000 -0.000002 12.308907
						CHANNELS 3 Xrotation Yrotation Zrotation
						JOINT RightArmRoll
						{
							OFFSET 0.000000 -0.000001 6.213745
							CHANNELS 3 Xrotation Yrotation Zrotation
							JOINT RightForeArm
							{
								OFFSET 0.000000 -0.000003 18.098495
								CHANNELS 3 Xrotation Yrotation Zrotation
								JOINT RightForeArmRoll
								{
									OFFSET 0.000000 -0.000001 6.972794
									CHANNELS 3 Xrotation Yrotation Zrotation
									JOINT RightHand
									{
										OFFSET 0.000000 -0.000002 13.992905
										CHANNELS 3 Xrotation Yrotation Zrotation
										End Site
										{
											OFFSET 0.000000 0.000000 0.100006
										}
									}
								}
							}
						}
					}
				}
				JOINT LeftShoulder
				{
					OFFSET 3.659161 0.509513 9.384682
					CHANNELS 3 Xrotation Yrotation Zrotation
					JOINT LeftArm
					{
						OFFSET 0.000000 -0.000002 12.308907
						CHANNELS 3 Xrotation Yrotation Zrotation
						JOINT LeftArmRoll
						{
							OFFSET 0.000000 -0.000001 6.213745
							CHANNELS 3 Xrotation Yrotation Zrotation
							JOINT LeftForeArm
							{
								OFFSET 0.000000 -0.000003 18.098495
								CHANNELS 3 Xrotation Yrotation Zrotation
								JOINT LeftForeArmRoll
								{
									OFFSET 0.000000 -0.000001 6.972794
									CHANNELS 3 Xrotation Yrotation Zrotation
									JOINT LeftHand
									{
										OFFSET 0.000000 -0.000002 13.992905
										CHANNELS 3 Xrotation Yrotation Zrotation
										End Site
										{
											OFFSET 0.000000 0.000000 0.100006
										}
									}
								}
							}
						}
					}
				}
			}
		}
	}
	JOINT RightUpLeg
	{
		OFFSET -5.535160 0.851454 -1.014999
		CHANNELS 3 Xrotation Yrotation Zrotation
		JOINT RightUpLegRoll
		{
			OFFSET 0.000000 -0.000003 16.407501
			CHANNELS 3 Xrotation Yrotation Zrotation
			JOINT RightLeg
			{
				OFFSET 0.000000 0.000003 -20.318100
				CHANNELS 3 Xrotation Yrotation Zrotation
				JOINT RightLegRoll
				{
					OFFSET 0.000000 -0.000003 20.384598
					CHANNELS 3 Xrotation Yrotation Zrotation
					JOINT RightFoot
					{
						OFFSET 0.000000 -0.000003 16.966797
						CHANNELS 3 Xrotation Yrotation Zrotation
						JOINT RightToeBase
						{
							OFFSET 0.000000 -0.000002 14.183395
							CHANNELS 3 Xrotation Yrotation Zrotation
							End Site
							{
								OFFSET 0.006012 0.791745 6.868896
							}
						}
					}
				}
			}
		}
	}
	JOINT LeftUpLeg
	{
		OFFSET 5.535160 0.851454 -1.014999
		CHANNELS 3 Xrotation Yrotation Zrotation
		JOINT LeftUpLegRoll
		{
			OFFSET 0.000000 -0.000003 16.407600
			CHANNELS 3 Xrotation Yrotation Zrotation
			JOINT LeftLeg
			{
				OFFSET 0.000000 -0.000003 20.318100
				CHANNELS 3 Xrotation Yrotation Zrotation
				JOINT LeftLegRoll
				{
					OFFSET 0.000000 -0.000003 20.573097
					CHANNELS 3 Xrotation Yrotation Zrotation
					JOINT LeftFoot
					{
						OFFSET 0.000000 -0.000003 16.778305
						CHANNELS 3 Xrotation Yrotation Zrotation
						JOINT LeftToeBase
						{
							OFFSET 0.000000 -0.000002 14.183395
							CHANNELS 3 Xrotation Yrotation Zrotation
							End Site
							{
								OFFSET -0.026943 0.791745 6.868896
							}
						}
					}
				}
			}
		}
	}
}
MOTION
Frames: 13
Frame Time: 0.041667
43.773396 5.195142 83.828491 2.243922 -0.413942 -3.570400 -0.969273 0.053067 -0.018380 2.064304 0.105847 -0.036384 3.709377 0.105404 -0.037646 0.710244 -0.432015 0.608289 1.884915 -0.303081 0.736414 -2.915109 -64.177018 -3.928392 -27.059119 -108.766596 -17.901750 0.000000 0.000001 0.000010 10.989674 -11.747712 0.683239 -0.000001 -0.000000 -3.000000 -5.000160 -7.998732 0.000147 -18.280054 60.879259 21.600618 -16.069068 111.623951 0.452039 -0.000000 0.000001 -0.000000 19.101690 4.588280 -0.197170 -0.000006 -0.000007 3.000012 -5.000262 7.999450 -0.000110 -9.952722 -176.151617 -0.250629 -179.999991 0.000005 -0.780002 165.994101 -0.370638 -1.214454 -0.000006 -0.000004 0.093695 70.396212 5.443280 5.919691 25.456981 -7.350849 0.000009 -2.097088 176.624252 -1.833751 -0.000005 -0.000004 -1.042170 -13.416095 0.434489 0.868475 -0.000003 0.000005 -0.582882 77.438028 -6.660334 -2.172089 25.636184 7.351051 -0.265648 
43.770695 5.187905 83.827492 2.268029 -0.411985 -3.559923 -0.971928 0.048997 -0.015621 2.058993 0.097242 -0.030905 3.704058 0.096865 -0.032065 0.760728 -0.384818 0.601757 1.830916 -0.354015 0.724974 -2.916113 -64.116454 -3.923483 -26.752270 -108.769656 -17.496368 0.000001 0.000001 0.000011 10.926291 -11.676010 0.665639 -0.000002 0.000000 -2.999999 -5.000160 -7.998733 0.000149 -18.186374 60.943080 21.490997 -16.037530 111.552883 0.286731 -0.000000 0.000001 -0.000001 18.919373 4.504863 -0.176946 -0.000004 -0.000006 3.000011 -5.000259 7.999451 -0.000107 -9.961167 -176.164526 -0.263963 -179.999991 0.000005 -0.780002 166.002106 -0.359981 -1.213737 -0.000005 -0.000004 0.093694 70.404415 5.442441 5.922143 25.456979 -7.350848 0.000009 -2.125423 176.635304 -1.806829 -0.000005 -0.000005 -1.042160 -13.437648 0.408023 0.868011 -0.000004 0.000006 -0.584655 77.448785 -6.660073 -2.172027 25.639622 7.351051 -0.270687 
43.773499 5.164312 83.829803 2.292349 -0.410114 -3.549234 -0.974698 0.044848 -0.012775 2.053453 0.088448 -0.025260 3.698515 0.088139 -0.026316 0.811985 -0.336093 0.594990 1.776611 -0.406295 0.713090 -2.918006 -64.054764 -3.919484 -26.442907 -108.772839 -17.087185 0.000000 0.000002 0.000011 10.861894 -11.603223 0.647947 -0.000002 0.000000 -2.999999 -5.000162 -7.998733 0.000149 -18.091084 61.008459 21.379539 -16.007569 111.479909 0.121241 -0.000001 0.000001 0.000001 18.734809 4.420588 -0.157170 -0.000007 -0.000007 3.000009 -5.000262 7.999449 -0.000109 -9.969537 -176.177435 -0.277591 -179.999991 0.000005 -0.780003 166.011327 -0.349324 -1.214027 -0.000005 -0.000004 0.093691 70.411778 5.441241 5.925476 25.456982 -7.350848 0.000009 -2.153392 176.647366 -1.778458 -0.000005 -0.000004 -1.042140 -13.457704 0.380165 0.867487 -0.000002 0.000005 -0.586418 77.459345 -6.659857 -2.172084 25.642750 7.351052 -0.275388 
43.764397 5.154774 83.827103 2.316829 -0.408300 -3.538371 -0.977538 0.040644 -0.009868 2.047762 0.079521 -0.019499 3.692834 0.079281 -0.020448 0.863784 -0.286301 0.588026 1.722113 -0.459511 0.700866 -2.920505 -63.992165 -3.916105 -26.130516 -108.777176 -16.674046 0.000000 0.000001 0.000010 10.796813 -11.529831 0.630295 -0.000001 0.000000 -3.000002 -5.000160 -7.998733 0.000149 -17.994511 61.074828 21.266586 -15.978367 111.406020 -0.044586 -0.000000 0.000001 -0.000000 18.548822 4.335688 -0.137887 -0.000005 -0.000006 3.000012 -5.000261 7.999450 -0.000109 -9.977864 -176.190330 -0.291422 -179.999991 0.000005 -0.781000 166.021149 -0.336719 -1.212819 -0.000005 -0.000004 0.093688 70.418567 5.439797 5.929494 25.456979 -7.350845 0.000008 -2.181113 176.659400 -1.749062 -0.000005 -0.000005 -1.042120 -13.476759 0.351334 0.866915 -0.000003 0.000005 -0.588175 77.469898 -6.659635 -2.171937 25.645781 7.351055 -0.279866 
43.765797 5.144433 83.829399 2.341389 -0.406513 -3.527439 -0.980428 0.036409 -0.006926 2.041982 0.070517 -0.013672 3.687054 0.070348 -0.014514 0.915890 -0.235906 0.580907 1.667500 -0.513250 0.688402 -2.923362 -63.929157 -3.913076 -25.815940 -108.782790 -16.258190 0.000000 0.000002 0.000010 10.731256 -11.455919 0.612672 -0.000001 0.000001 -3.000000 -5.000161 -7.998733 0.000148 -17.896940 61.141640 21.152512 -15.949846 111.331168 -0.210534 -0.000000 0.000001 0.000000 18.362007 4.250398 -0.119150 -0.000005 -0.000007 3.000010 -5.000259 7.999450 -0.000110 -9.986163 -176.202242 -0.305544 -179.999991 0.000005 -0.781000 166.031462 -0.325095 -1.212869 -0.000006 -0.000004 0.093684 70.425008 5.438232 5.933808 25.456982 -7.350848 0.000010 -2.208681 176.672473 -1.719117 -0.000005 -0.000004 -1.042100 -13.495318 0.321948 0.866307 -0.000003 0.000006 -0.589928 77.480355 -6.659428 -2.171796 25.648813 7.351043 -0.284215 
43.757595 5.123444 83.831398 2.365969 -0.404727 -3.516468 -0.983327 0.032164 -0.003977 2.036182 0.061494 -0.007830 3.681253 0.061396 -0.008565 0.968074 -0.185371 0.573682 1.612849 -0.567102 0.675800 -2.926280 -63.865937 -3.910110 -25.501343 -108.788931 -15.842284 0.000000 0.000002 0.000010 10.665751 -11.381964 0.595242 -0.000001 -0.000000 -3.000000 -5.000161 -7.998731 0.000149 -17.798798 61.208529 21.037790 -15.920479 111.257300 -0.377517 -0.000000 0.000001 -0.000001 18.174978 4.164954 -0.100945 -0.000004 -0.000007 3.000008 -5.000262 7.999449 -0.000109 -9.994442 -176.215138 -0.319516 -179.999991 0.000005 -0.781000 166.041981 -0.313457 -1.212904 -0.000005 -0.000004 0.093680 70.431347 5.436659 5.938228 25.456982 -7.350849 0.000009 -2.236220 176.685533 -1.689045 -0.000005 -0.000004 -1.042080 -13.513682 0.292422 0.865678 -0.000003 0.000005 -0.591680 77.490812 -6.659241 -2.171660 25.651745 7.351033 -0.288521 
43.752296 5.114664 83.832092 2.390508 -0.402912 -3.505559 -0.986205 0.027936 -0.001045 2.030431 0.052507 -0.002024 3.675492 0.052479 -0.002651 1.020104 -0.135156 0.566397 1.558258 -0.620658 0.663168 -2.929018 -63.803044 -3.906962 -25.187526 -108.795706 -15.427533 0.000000 0.000001 0.000011 10.600405 -11.308155 0.578006 -0.000002 0.000000 -2.999999 -5.000160 -7.998733 0.000150 -17.700502 61.275027 20.922908 -15.890864 111.183404 -0.544480 0.000000 0.000001 -0.000000 17.988541 4.079598 -0.083322 -0.000005 -0.000006 3.000009 -5.000261 7.999449 -0.000110 -10.002751 -176.227063 -0.333600 -179.999991 0.000005 -0.781000 166.052199 -0.301831 -1.211966 -0.000006 -0.000004 0.093677 70.437815 5.435159 5.942450 25.456982 -7.350848 0.000009 -2.263838 176.697581 -1.659231 -0.000005 -0.000004 -1.042060 -13.532346 0.263174 0.865036 -0.000003 0.000005 -0.593435 77.501282 -6.659044 -2.171522 25.654674 7.351030 -0.292898 
43.774395 5.103364 83.825798 2.414940 -0.401043 -3.494756 -0.989025 0.023746 0.001842 2.024781 0.043613 0.003697 3.669852 0.043654 0.003175 1.071752 -0.085725 0.559105 1.503815 -0.673506 0.650611 -2.931334 -63.740739 -3.903366 -24.874092 -108.804128 -15.013879 0.000000 0.000001 0.000011 10.535740 -11.234772 0.561054 -0.000001 0.000000 -2.999999 -5.000160 -7.998733 0.000149 -17.602287 61.340467 20.808180 -15.860182 111.110457 -0.711682 -0.000000 0.000001 0.000002 17.803298 3.994558 -0.066282 -0.000004 -0.000007 3.000008 -5.000261 7.999450 -0.000111 -10.011091 -176.239959 -0.347362 -179.999991 0.000005 -0.781996 166.061816 -0.290190 -1.212014 -0.000005 -0.000004 0.093674 70.444823 5.433799 5.946172 25.456981 -7.350849 0.000009 -2.291624 176.710627 -1.630219 -0.000005 -0.000005 -1.042040 -13.551715 0.234624 0.864396 -0.000002 0.000005 -0.595193 77.511855 -6.658839 -2.171379 25.657797 7.351020 -0.297445 
43.762398 5.096423 83.826790 2.439207 -0.399089 -3.484150 -0.991758 0.019619 0.004659 2.019311 0.034869 0.009281 3.664382 0.034977 0.008863 1.122780 -0.037539 0.551858 1.449603 -0.725239 0.638237 -2.932902 -63.679356 -3.899010 -24.564389 -108.812502 -14.605221 0.000000 0.000001 0.000011 10.471976 -11.162202 0.544459 -0.000003 0.000000 -3.000000 -5.000160 -7.998733 0.000148 -17.504711 61.404582 20.694198 -15.828344 111.038447 -0.878610 -0.000000 0.000001 0.000001 17.619964 3.910074 -0.049817 -0.000004 -0.000007 3.000008 -5.000261 7.999450 -0.000109 -10.019480 -176.252868 -0.360883 -179.999991 0.000005 -0.781997 166.070626 -0.278559 -1.211091 -0.000005 -0.000004 0.093671 70.452336 5.432739 5.949324 25.456977 -7.350846 0.000009 -2.319702 176.721692 -1.602323 -0.000005 -0.000004 -1.042030 -13.572290 0.207186 0.863768 -0.000002 0.000006 -0.596960 77.522517 -6.658580 -2.171321 25.661041 7.351022 -0.302242 
43.771297 5.080315 83.828194 2.463240 -0.397023 -3.473781 -0.994375 0.015579 0.007380 2.014080 0.026330 0.014679 3.659151 0.026504 0.014363 1.172960 0.008942 0.544713 1.395721 -0.775448 0.626160 -2.933524 -63.619305 -3.893687 -24.258018 -108.821818 -14.201486 0.000001 0.000000 0.000012 10.409421 -11.090731 0.528277 -0.000002 0.000000 -3.000001 -5.000161 -7.998735 0.000148 -17.408064 61.466730 20.581334 -15.794526 110.968342 -1.045736 0.000000 0.000001 0.000003 17.439225 3.826378 -0.033949 -0.000006 -0.000008 3.000010 -5.000262 7.999450 -0.000107 -10.027989 -176.265763 -0.374078 -179.999991 0.000005 -0.781997 166.078235 -0.268863 -1.211639 -0.000005 -0.000004 0.093670 70.460874 5.432009 5.951480 25.456977 -7.350847 0.000009 -2.348186 176.732729 -1.576084 -0.000005 -0.000004 -1.042020 -13.594470 0.181280 0.863164 -0.000002 0.000005 -0.598737 77.533289 -6.658312 -2.171358 25.664572 7.351014 -0.307423 
43.767597 5.066242 83.825104 2.486971 -0.394818 -3.463742 -0.996837 0.011648 0.009977 2.009160 0.018054 0.019840 3.654231 0.018291 0.019622 1.222060 0.053256 0.537726 1.342245 -0.823724 0.614491 -2.932929 -63.560969 -3.887116 -23.955777 -108.832186 -13.803913 0.000000 0.000002 0.000010 10.348488 -11.020540 0.512547 -0.000001 0.000000 -2.999999 -5.000162 -7.998733 0.000149 -17.312725 61.526453 20.470038 -15.757895 110.901064 -1.213331 -0.000001 0.000001 -0.000000 17.261596 3.743711 -0.018644 -0.000005 -0.000008 3.000009 -5.000260 7.999451 -0.000108 -10.036550 -176.279656 -0.386677 -179.999991 0.000005 -0.781997 166.084355 -0.259165 -1.211214 -0.000006 -0.000004 0.093670 70.470593 5.431795 5.952369 25.456981 -7.350849 0.000009 -2.377182 176.741800 -1.551844 -0.000005 -0.000004 -1.042020 -13.618654 0.157321 0.862595 -0.000002 0.000005 -0.600527 77.544169 -6.658035 -2.171589 25.668414 7.351016 -0.313056 
43.755497 5.063513 83.829697 2.510341 -0.392448 -3.454094 -0.999110 0.007851 0.012426 2.004610 0.010098 0.024714 3.649681 0.010393 0.024591 1.269841 0.094942 0.530958 1.289268 -0.869659 0.603344 -2.930835 -63.504572 -3.879016 -23.659753 -108.842773 -13.415034 0.000000 0.000001 0.000010 10.289394 -10.952028 0.497332 -0.000002 0.000000 -3.000001 -5.000161 -7.998733 0.000149 -17.219236 61.583369 20.360912 -15.718347 110.836628 -1.380980 0.000000 0.000001 0.000002 17.087976 3.662315 -0.003901 -0.000004 -0.000006 3.000011 -5.000261 7.999449 -0.000110 -10.045211 -176.293535 -0.398767 -179.999991 0.000005 -0.782994 166.088563 -0.250431 -1.210028 -0.000006 -0.000004 0.093671 70.481699 5.432134 5.951883 25.456979 -7.350848 0.000009 -2.406790 176.749859 -1.530107 -0.000005 -0.000005 -1.042020 -13.645239 0.135730 0.862073 -0.000003 0.000006 -0.602332 77.555350 -6.657675 -2.171892 25.672557 7.351016 -0.319246 
43.759895 5.050943 83.831482 2.533278 -0.389883 -3.444901 -1.001159 0.004211 0.014699 2.000490 0.002517 0.029251 3.645571 0.002867 0.029218 1.316095 0.133540 0.524471 1.236877 -0.912848 0.592835 -2.927015 -63.450504 -3.869166 -23.369535 -108.854562 -13.034783 0.000000 0.000001 0.000011 10.232552 -10.885473 0.482691 -0.000002 0.000000 -3.000000 -5.000159 -7.998732 0.000149 -17.127915 61.636925 20.254357 -15.675745 110.775027 -1.548225 -0.000000 0.000001 0.000000 16.918963 3.582421 0.010307 -0.000005 -0.000007 3.000009 -5.000260 7.999450 -0.000106 -10.054056 -176.308411 -0.410091 -179.999991 0.000005 -0.782994 166.090666 -0.243644 -1.209335 -0.000006 -0.000004 0.093674 70.494553 5.433151 5.949535 25.456979 -7.350848 0.000009 -2.437122 176.755938 -1.511262 -0.000005 -0.000004 -1.042040 -13.674829 0.116921 0.861611 -0.000003 0.000005 -0.604157 77.566729 -6.657261 -2.172376 25.677297 7.351016 -0.326121 
